# xmcd CD database file
#
# Track frame offsets:
#	151
#	13238
#	27003
#	39412
#	49199
#	58612
#	71997
#	84256
#	93351
#	103436
#
# Disc length: 1543 seconds
#
# Revision: 0
# Processed by: cddbd v1.5.1PL0 Copyright (c) Steve Scherf et al.
# Submitted via: CDex 1.51
#
DISCID=8206050a
DTITLE=Los Hitters and 7 Grandes Idolos de La Balada Romántica - 100 años de Musica (DIMSA)
DYEAR=2004
DGENRE=Romántico
TTITLE0=Alto Mas Alto
TTITLE1=Los Supersecos  Quien Puso El Bump
TTITLE2=Los Belmonts  Amarrado
TTITLE3=Los Rebeldes del Rock  Kansas City
TTITLE4=Aahora Estoy Solo
TTITLE5=The High Hats  Tequila
TTITLE6=Hermanas Jiménez  San Antonio Twist
TTITLE7=Los Teen Tops  A Tu Puerta Toque
TTITLE8=Bill Halley  Pure de Papas
TTITLE9=Hanky Hanky
EXTD=YEAR: 2004
EXTT0=
EXTT1=
EXTT2=
EXTT3=
EXTT4=
EXTT5=
EXTT6=
EXTT7=
EXTT8=
EXTT9=
PLAYORDER=
